<svg width="22" height="20" viewBox="0 0 22 20" fill="none" xmlns="http://www.w3.org/2000/svg">
<path d="M10.985 13.408L14.227 17.094C15.427 18.459 16.028 19.142 16.657 18.975C17.285 18.809 17.501 17.911 17.932 16.114L20.322 6.14604C20.987 3.37804 21.319 1.99504 20.581 1.31204C19.843 0.629039 18.564 1.13704 16.006 2.15204L4.13998 6.86504C2.09398 7.67804 1.07099 8.08404 1.00599 8.78204C0.99833 8.85317 0.99833 8.92491 1.00599 8.99604C1.06899 9.69504 2.08998 10.104 4.13398 10.923C5.05898 11.294 5.52199 11.48 5.85399 11.835C5.89132 11.875 5.92732 11.9164 5.96199 11.959C6.26799 12.339 6.39799 12.839 6.65899 13.835L7.14798 15.702C7.40098 16.672 7.52799 17.158 7.86099 17.224C8.19399 17.29 8.48299 16.888 9.06199 16.083L10.985 13.408ZM10.985 13.408L10.668 13.078C10.306 12.7 10.125 12.512 10.125 12.278C10.125 12.044 10.305 11.855 10.668 11.478L14.241 7.75404" stroke="white" stroke-width="1.5" stroke-linecap="round" stroke-linejoin="round"/>
</svg>
